Coordinates
version=1
nRows=11
nColumns=40
inDegrees=yes

Units are S.I. units (second, meters, Newtons, ...)
If the header above contains a line with 'inDegrees', this indicates whether rotational values are in degrees (yes) or radians (no).

endheader
time	pelvis_tilt	pelvis_list	pelvis_rotation	pelvis_tx	pelvis_ty	pelvis_tz	hip_flexion_r	hip_adduction_r	hip_rotation_r	knee_angle_r	knee_angle_r_beta	ankle_angle_r	subtalar_angle_r	mtp_angle_r	hip_flexion_l	hip_adduction_l	hip_rotation_l	knee_angle_l	knee_angle_l_beta	ankle_angle_l	subtalar_angle_l	mtp_angle_l	lumbar_extension	lumbar_bending	lumbar_rotation	arm_flex_r	arm_add_r	arm_rot_r	elbow_flex_r	pro_sup_r	wrist_flex_r	wrist_dev_r	arm_flex_l	arm_add_l	arm_rot_l	elbow_flex_l	pro_sup_l	wrist_flex_l	wrist_dev_l
      2.90000000	     13.19350879	     -9.39667503	     -2.20660835	     -0.27745864	      1.07738729	     -1.02674745	     48.54997944	      1.76162426	     -6.14787053	     26.68576519	      0.46575447	      0.71513717	      0.00000000	      0.00000000	     -3.26182300	     -3.62844994	     -5.20276126	     24.67727656	      0.43069973	      9.80410652	      0.00000000	      0.00000000	    -16.39963270	      6.15351920	      2.43696017	     86.03777949	    -10.87380014	     49.49818935	     23.43033466	     86.05554831	      0.00000000	      0.00000000	     88.13688166	    -15.95942943	     58.09148790	     24.05482734	     85.74642271	      0.00000000	      0.00000000
      2.90500000	     13.14470607	     -9.33630057	     -2.21526878	     -0.27754806	      1.07719884	     -1.02679774	     48.57177657	      1.74650250	     -6.10820779	     26.62405946	      0.46467750	      0.89915887	      0.00000000	      0.00000000	     -3.19341716	     -3.55846221	     -5.23489669	     24.66241285	      0.43044031	      9.75391514	      0.00000000	      0.00000000	    -16.37542470	      6.10799053	      2.44703916	     86.05154079	    -10.90595463	     49.66696935	     23.36162264	     85.75416894	      0.00000000	      0.00000000	     88.19857586	    -15.92862241	     58.20378912	     23.95612300	     85.42895966	      0.00000000	      0.00000000
      2.91000000	     13.10119980	     -9.31552841	     -2.23314670	     -0.27766082	      1.07695344	     -1.02684419	     48.58462111	      1.73687286	     -6.15055530	     26.63565246	      0.46487983	      0.76063429	      0.00000000	      0.00000000	     -3.05424581	     -3.51997624	     -5.11085615	     24.85685829	      0.43383402	      9.86838490	      0.00000000	      0.00000000	    -16.38847873	      6.14853997	      2.46738504	     86.10194333	    -10.87051572	     49.67106549	     23.39699002	     85.92610889	      0.00000000	      0.00000000	     88.18896074	    -15.99933459	     58.04393125	     24.06798095	     85.65835107	      0.00000000	      0.00000000
      2.91500000	     13.06973538	     -9.29868278	     -2.22952279	     -0.27779128	      1.07675883	     -1.02689389	     48.58145345	      1.73913937	     -6.14995627	     26.59209010	      0.46411953	      0.72425697	      0.00000000	      0.00000000	     -2.96605609	     -3.49182707	     -5.06528240	     24.93199537	      0.43514541	      9.87731548	      0.00000000	      0.00000000	    -16.40041193	      6.17298995	      2.49419005	     86.13416407	    -10.87405889	     49.66677110	     23.38008880	     85.98069235	      0.00000000	      0.00000000	     88.21024033	    -16.00414527	     57.99470964	     24.08312582	     85.69921464	      0.00000000	      0.00000000
      2.92000000	     13.04961984	     -9.25386020	     -2.24458501	     -0.27792425	      1.07656182	     -1.02698480	     48.57327068	      1.72699093	     -6.14514222	     26.56661985	      0.46367499	      0.67852020	      0.00000000	      0.00000000	     -2.88993136	     -3.40979339	     -4.93812798	     25.01799863	      0.43664645	      9.96501540	      0.00000000	      0.00000000	    -16.42005169	      6.14848434	      2.54273772	     86.15410572	    -10.93062500	     49.77451718	     23.44519203	     85.85208894	      0.00000000	      0.00000000	     88.26179257	    -15.96648785	     58.09996171	     24.04725676	     85.55933873	      0.00000000	      0.00000000
      2.92500000	     12.96610044	     -9.24124134	     -2.27597552	     -0.27806142	      1.07624729	     -1.02702852	     48.65295176	      1.74804340	     -6.12039120	     26.56153174	      0.46358618	      0.67234293	      0.00000000	      0.00000000	     -2.71412669	     -3.40062272	     -4.98964969	     25.15527731	      0.43904241	     10.00162323	      0.00000000	      0.00000000	    -16.38324254	      6.18211931	      2.57310324	     86.21496401	    -10.95513024	     50.08523186	     23.47808189	     85.71082490	      0.00000000	      0.00000000	     88.32196971	    -16.03599062	     58.41499919	     24.08411225	     85.35475092	      0.00000000	      0.00000000
      2.93000000	     12.96073251	     -9.23066383	     -2.29105357	     -0.27817077	      1.07612684	     -1.02706056	     48.61264356	      1.77019270	     -6.12366314	     26.52379196	      0.46292750	      0.70681509	      0.00000000	      0.00000000	     -2.66629920	     -3.36792151	     -4.92615214	     25.22079842	      0.44018597	     10.14392796	      0.00000000	      0.00000000	    -16.42253443	      6.19807116	      2.61672821	     86.20372339	    -10.89633537	     49.76851840	     23.38246186	     86.00343049	      0.00000000	      0.00000000	     88.27501623	    -15.96892122	     57.81413993	     24.03572876	     85.67773278	      0.00000000	      0.00000000
      2.93500000	     12.93046484	     -9.23863470	     -2.28895836	     -0.27831894	      1.07587112	     -1.02713503	     48.61353533	      1.79148179	     -6.13078304	     26.48015793	      0.46216594	      0.67240318	      0.00000000	      0.00000000	     -2.53254392	     -3.36496139	     -4.83043434	     25.39515439	      0.44322906	     10.19127241	      0.00000000	      0.00000000	    -16.43447242	      6.24415969	      2.63893105	     86.23275882	    -10.88990162	     49.80348313	     23.36292182	     85.98647955	      0.00000000	      0.00000000	     88.29689879	    -15.97521984	     57.80287680	     24.03625018	     85.67239469	      0.00000000	      0.00000000
      2.94000000	     12.93314879	     -9.24668139	     -2.30395917	     -0.27842817	      1.07569881	     -1.02718107	     48.59015395	      1.81564500	     -6.17882579	     26.47811972	      0.46213037	      0.66616276	      0.00000000	      0.00000000	     -2.43048237	     -3.36685919	     -4.79262489	     25.58275640	      0.44650333	     10.22971911	      0.00000000	      0.00000000	    -16.48878774	      6.29471757	      2.68710210	     86.28220419	    -10.89612743	     49.91099122	     23.34718996	     85.97788191	      0.00000000	      0.00000000	     88.31965338	    -15.99980662	     57.77902466	     24.09521176	     85.66222874	      0.00000000	      0.00000000
      2.94500000	     12.90899669	     -9.28688148	     -2.28977614	     -0.27856614	      1.07542243	     -1.02729026	     48.57825505	      1.85080966	     -6.26052507	     26.42996582	      0.46128992	      0.64076861	      0.00000000	      0.00000000	     -2.28584784	     -3.39119872	     -4.64817460	     25.79702617	      0.45024304	     10.35576635	      0.00000000	      0.00000000	    -16.51583054	      6.38858841	      2.71151953	     86.32837148	    -10.89785778	     50.05659553	     23.32055443	     86.03340354	      0.00000000	      0.00000000	     88.34664161	    -16.00594321	     57.72628830	     24.05963688	     85.70799229	      0.00000000	      0.00000000
      2.95000000	     12.86513719	     -9.31188122	     -2.28484996	     -0.27878900	      1.07507706	     -1.02734267	     48.60446261	      1.87975257	     -6.28161986	     26.39700847	      0.46071471	      0.57891369	      0.00000000	      0.00000000	     -2.09043104	     -3.40331389	     -4.50708245	     26.04887697	      0.45463867	     10.43727175	      0.00000000	      0.00000000	    -16.52517128	      6.45419439	      2.72813312	     86.38264931	    -10.87997246	     50.12448712	     23.28723954	     86.10627662	      0.00000000	      0.00000000	     88.35887605	    -15.99469462	     57.54451861	     24.06578980	     85.69672572	      0.00000000	      0.00000000
